<svg xmlns="http://www.w3.org/2000/svg" viewBox="0 0 64 64">
  <!-- Fond rond -->
  <circle cx="32" cy="32" r="30" fill="#FAF5EF"/>
  <!-- Éventail stylisé : lamelles en arc -->
  <path d="M32 50 Q14 33 18 17 Q20 10 26 13 Q30 15 32 22" fill="#C4846B" opacity="0.92"/>
  <path d="M32 50 Q10 30 20 11 Q22 6 28 10 Q31 14 32 22" fill="#DBA898" opacity="0.70"/>
  <path d="M32 50 Q50 33 46 17 Q44 10 38 13 Q34 15 32 22" fill="#C4846B" opacity="0.92"/>
  <path d="M32 50 Q54 30 44 11 Q42 6 36 10 Q33 14 32 22" fill="#DBA898" opacity="0.70"/>
  <!-- Axe central -->
  <line x1="32" y1="50" x2="32" y2="22" stroke="#9A7A30" stroke-width="1.5"/>
  <line x1="32" y1="50" x2="22" y2="16" stroke="#9A7A30" stroke-width="1" opacity="0.6"/>
  <line x1="32" y1="50" x2="42" y2="16" stroke="#9A7A30" stroke-width="1" opacity="0.6"/>
  <!-- Pivot -->
  <circle cx="32" cy="50" r="3" fill="#9A7A30"/>
  <!-- Initiales GE -->
  <text x="32" y="60" text-anchor="middle" font-family="Georgia,serif" font-size="6" font-weight="bold" fill="#C4846B">GE</text>
</svg>
